<svg xmlns="http://www.w3.org/2000/svg" width="124.211" height="17.332" viewBox="0 0 124.211 17.332"><defs><style>.a{fill:#f64b53;}</style></defs><g transform="translate(-123 -32)"><path class="a" d="M9.461,3.374a8.04,8.04,0,0,0-2.4-.433,3.362,3.362,0,0,0-1.833.433A1.36,1.36,0,0,0,4.555,4.58a1.584,1.584,0,0,0,.47,1.169,3.683,3.683,0,0,0,1.181.772,18.891,18.891,0,0,0,1.941.663A21.261,21.261,0,0,1,10.956,8.2a5.009,5.009,0,0,1,1.868,1.495,4.113,4.113,0,0,1,.772,2.6,4.448,4.448,0,0,1-.832,2.687,5.207,5.207,0,0,1-2.29,1.748,8.68,8.68,0,0,1-3.338.6A10.514,10.514,0,0,1,3.278,16.6,10.941,10.941,0,0,1,0,14.632l1.35-2.747A9.879,9.879,0,0,0,4.218,13.74a7.625,7.625,0,0,0,2.965.675A3.757,3.757,0,0,0,9.3,13.9a1.705,1.705,0,0,0,.3-2.6,3.505,3.505,0,0,0-1.193-.759q-.724-.29-1.977-.651a23.259,23.259,0,0,1-2.8-.988A4.847,4.847,0,0,1,1.783,7.437a4.022,4.022,0,0,1-.771-2.568A4.307,4.307,0,0,1,1.8,2.3,5.047,5.047,0,0,1,4.014.6,8.489,8.489,0,0,1,7.327,0a11.217,11.217,0,0,1,3.242.482,10.968,10.968,0,0,1,2.857,1.3l-1.3,2.82A12.235,12.235,0,0,0,9.461,3.374Z" transform="translate(123 32)"/><path class="a" d="M328.27,4.09h3.23V18.047h7.28v2.917H328.27Z" transform="translate(-184.034 28.175)"/><path class="a" d="M600.65,4.09h3.23V20.964h-3.23Z" transform="translate(-438.794 28.175)"/><path class="a" d="M797.234,4.09h3.134V20.964h-3.062L788.628,9.345V20.964H785.47V4.09h3.062l8.7,11.643V4.09Z" transform="translate(-611.658 28.175)"/><path class="a" d="M1121.561,4.09h13.764V6.959h-5.255v14h-3.254v-14h-5.255V4.09Z" transform="translate(-926.006 28.175)"/><path class="a" d="M1440.54,4.09h12.365V6.91h-9.135v4.171h8.2V13.9h-8.2v4.242h9.425v2.82H1440.54Z" transform="translate(-1224.352 28.175)"/><path class="a" d="M1757.64,4.09h3.23V18.047h7.28v2.917h-10.51Z" transform="translate(-1520.939 28.175)"/></g></svg>