<svg xmlns="http://www.w3.org/2000/svg" width="720" height="572.5" viewBox="0 0 720 572.5"><defs><style>.a{fill:#fff;}.a,.b,.f{stroke:#e3e3eb;}.b,.d{fill:#fafafd;}.c,.e{fill:#29275f;}.c{font-size:18px;font-family:Roboto-Medium, Roboto;font-weight:500;}.e{font-size:14px;font-family:Roboto-Regular, Roboto;}.f,.h{fill:none;}.g{stroke:none;}</style></defs><g transform="translate(-43 -11721)"><g transform="translate(-57 11039)"><g class="a" transform="translate(100 682)"><rect class="g" width="720" height="572" rx="5"/><rect class="h" x="0.5" y="0.5" width="719" height="571" rx="4.5"/></g><g class="b" transform="translate(100 682)"><path class="g" d="M5,0H715a5,5,0,0,1,5,5V69a0,0,0,0,1,0,0H0a0,0,0,0,1,0,0V5A5,5,0,0,1,5,0Z"/><path class="h" d="M5,.5H715A4.5,4.5,0,0,1,719.5,5V68a.5.5,0,0,1-.5.5H1A.5.5,0,0,1,.5,68V5A4.5,4.5,0,0,1,5,.5Z"/></g><text class="c" transform="translate(281 723)"><tspan x="-89.732" y="0">Marketing Intelligence</tspan></text><text class="c" transform="translate(641 723)"><tspan x="-71.055" y="0">Sales Intelligence</tspan></text><rect class="d" width="718" height="178" transform="translate(101 946)"/><text class="e" transform="translate(124 775)"><tspan x="0" y="13">Marketing intelligence is typically information </tspan><tspan x="0" y="29">pertinent to market size, population, infrastructure, </tspan><tspan x="0" y="45">location, and consumer spending habits.</tspan><tspan x="0" y="61"></tspan><tspan x="0" y="77">This can help marketers and decision-makers </tspan><tspan x="0" y="93">choose the right kind of regions or markets they </tspan><tspan x="0" y="109">can enter next, be informed about what </tspan><tspan x="0" y="125">consumers expect, and make growth projections </tspan><tspan x="0" y="141">for specific markets.</tspan></text><text class="e" transform="translate(484 775)"><tspan x="0" y="13">Sales intelligence, as we saw earlier, refers to the </tspan><tspan x="0" y="29">information &amp; insights about prospective buyers </tspan><tspan x="0" y="45">that companies can benefit from. This can include </tspan><tspan x="0" y="61">technographics, psychographics, firmographics, </tspan><tspan x="0" y="77">buyer intent, and other related knowledge.</tspan></text><g transform="translate(0 373)"><text class="e" transform="translate(124 775)"><tspan x="0" y="13">Marketing intelligence predominantly helps in </tspan><tspan x="0" y="29">making marketing decisions, but as a corollary, </tspan><tspan x="0" y="45">they impact lead quality and lead volume which </tspan><tspan x="0" y="61">will affect the sales team.</tspan></text><text class="e" transform="translate(484 775)"><tspan x="0" y="13">Sales intelligence helps client-facing teams like </tspan><tspan x="0" y="29">sales organizations and customer success </tspan><tspan x="0" y="45">functions perform better. They can also help </tspan><tspan x="0" y="61">product teams understand exactly what clients </tspan><tspan x="0" y="77">expect from their software.</tspan></text></g><g transform="translate(0 195)"><text class="e" transform="translate(124 775)"><tspan x="0" y="13">While marketing intelligence mostly revolves </tspan><tspan x="0" y="29">around market research and marketing spend </tspan><tspan x="0" y="45">optimization, it rarely delves into account-based </tspan><tspan x="0" y="61">information.</tspan><tspan x="0" y="77"></tspan><tspan x="0" y="93">It rather focuses on gaining insights about </tspan><tspan x="0" y="109">industry trends and market development metrics </tspan><tspan x="0" y="125">to aid a company’s go-to-market strategy</tspan></text><text class="e" transform="translate(484 775)"><tspan x="0" y="13">Sales intelligence is often account-based, and </tspan><tspan x="0" y="29">gives users access to deep insights about the </tspan><tspan x="0" y="45">AIOs and purchase intent of buyers.</tspan></text></g></g><line class="f" y2="572" transform="translate(403.5 11721.5)"/></g></svg>