<svg xmlns="http://www.w3.org/2000/svg" width="721.5" height="800" viewBox="0 0 721.5 800"><defs><style>.a{fill:#fff;}.a,.f{stroke:#e3e3eb;}.b{fill:#fafafd;}.c{fill:#929cb7;}.c,.e{font-size:16px;}.c,.d{font-family:Roboto-Medium, Roboto;font-weight:500;}.d,.e{fill:#29275f;}.d{font-size:20px;}.e{font-family:Roboto-Regular, Roboto;}.f,.h{fill:none;}.g,.i{stroke:none;}.i{fill:#e3e3eb;}</style></defs><g transform="translate(-443 -4838.326)"><g transform="translate(1 1021)"><g transform="translate(-359 3502.326)"><g class="a" transform="translate(801 315)"><rect class="g" width="720" height="800" rx="5"/><rect class="h" x="0.5" y="0.5" width="719" height="799" rx="4.5"/></g><g class="b" transform="translate(801 315)"><path class="g" d="M 719.5 45.5 L 0.5 45.5 L 0.5 5 C 0.5 2.51872730255127 2.51872730255127 0.5 5 0.5 L 715 0.5 C 717.4812622070312 0.5 719.5 2.51872730255127 719.5 5 L 719.5 45.5 Z"/><path class="i" d="M 5 1 C 2.79437255859375 1 1 2.794364929199219 1 5 L 1 45 L 719 45 L 719 5 C 719 2.794364929199219 717.2056274414062 1 715 1 L 5 1 M 5 0 L 715 0 C 717.7613525390625 0 720 2.238544464111328 720 5 L 720 46 L 0 46 L 0 5 C 0 2.238544464111328 2.238525390625 0 5 0 Z"/></g><text class="c" transform="translate(1118 343)"><tspan x="0" y="0">Low Scorers</tspan></text><text class="c" transform="translate(1338 343)"><tspan x="0" y="0">High Scorers</tspan></text></g></g><text class="d" transform="translate(469 4921.326)"><tspan x="0" y="0">Openness</tspan></text><text class="e" transform="translate(760 4919.326)"><tspan x="0" y="0">Down-to-earth</tspan></text><text class="e" transform="translate(760 4948.326)"><tspan x="0" y="0">Uncreative</tspan></text><text class="e" transform="translate(760 4977.326)"><tspan x="0" y="0">Conventional</tspan></text><text class="e" transform="translate(760 5006.326)"><tspan x="0" y="0">Uncurious</tspan></text><text class="e" transform="translate(980 4919.326)"><tspan x="0" y="0">Imaginative</tspan></text><text class="e" transform="translate(980 4948.326)"><tspan x="0" y="0">Creative</tspan></text><text class="e" transform="translate(980 4977.326)"><tspan x="0" y="0">Original</tspan></text><text class="e" transform="translate(980 5006.326)"><tspan x="0" y="0">Curious</tspan></text><line class="f" x2="720" transform="translate(444.5 5030.5)"/><g transform="translate(0 152)"><text class="d" transform="translate(469 4921.326)"><tspan x="0" y="0">Conscientiousness</tspan></text><text class="e" transform="translate(760 4919.326)"><tspan x="0" y="0">Negligent</tspan></text><text class="e" transform="translate(760 4948.326)"><tspan x="0" y="0">Lazy</tspan></text><text class="e" transform="translate(760 4977.326)"><tspan x="0" y="0">Disorganized</tspan></text><text class="e" transform="translate(760 5006.326)"><tspan x="0" y="0">Late</tspan></text><text class="e" transform="translate(980 4919.326)"><tspan x="0" y="0">Conscientious</tspan></text><text class="e" transform="translate(980 4948.326)"><tspan x="0" y="0">Hard-working</tspan></text><text class="e" transform="translate(980 4977.326)"><tspan x="0" y="0">Well-organised</tspan></text><text class="e" transform="translate(980 5006.326)"><tspan x="0" y="0">Punctual</tspan></text><line class="f" x2="720" transform="translate(444.5 5030.5)"/></g><g transform="translate(0 304)"><text class="d" transform="translate(469 4921.326)"><tspan x="0" y="0">Extroversion</tspan></text><text class="e" transform="translate(760 4919.326)"><tspan x="0" y="0">Loner</tspan></text><text class="e" transform="translate(760 4948.326)"><tspan x="0" y="0">Quiet</tspan></text><text class="e" transform="translate(760 4977.326)"><tspan x="0" y="0">Passive</tspan></text><text class="e" transform="translate(760 5006.326)"><tspan x="0" y="0">Reserved</tspan></text><text class="e" transform="translate(980 4919.326)"><tspan x="0" y="0">Joiner</tspan></text><text class="e" transform="translate(980 4948.326)"><tspan x="0" y="0">Talkative</tspan></text><text class="e" transform="translate(980 4977.326)"><tspan x="0" y="0">Active</tspan></text><text class="e" transform="translate(980 5006.326)"><tspan x="0" y="0">Affectionate</tspan></text><line class="f" x2="720" transform="translate(444.5 5030.5)"/></g><g transform="translate(0 456)"><text class="d" transform="translate(469 4921.326)"><tspan x="0" y="0">Agreeableness</tspan></text><text class="e" transform="translate(760 4919.326)"><tspan x="0" y="0">Suspicious</tspan></text><text class="e" transform="translate(760 4948.326)"><tspan x="0" y="0">Critical</tspan></text><text class="e" transform="translate(760 4977.326)"><tspan x="0" y="0">Ruthless</tspan></text><text class="e" transform="translate(760 5006.326)"><tspan x="0" y="0">Irritable</tspan></text><text class="e" transform="translate(980 4919.326)"><tspan x="0" y="0">Trusting</tspan></text><text class="e" transform="translate(980 4948.326)"><tspan x="0" y="0">Lenient</tspan></text><text class="e" transform="translate(980 4977.326)"><tspan x="0" y="0">Soft-hearted</tspan></text><text class="e" transform="translate(980 5006.326)"><tspan x="0" y="0">Good-natured</tspan></text><line class="f" x2="720" transform="translate(444.5 5030.5)"/></g><g transform="translate(0 608)"><text class="d" transform="translate(469 4921.326)"><tspan x="0" y="0">Neuroticism</tspan></text><text class="e" transform="translate(760 4919.326)"><tspan x="0" y="0">Calm</tspan></text><text class="e" transform="translate(760 4948.326)"><tspan x="0" y="0">Even-tempered</tspan></text><text class="e" transform="translate(760 4977.326)"><tspan x="0" y="0">Comfortable</tspan></text><text class="e" transform="translate(760 5006.326)"><tspan x="0" y="0">Unemotional</tspan></text><text class="e" transform="translate(980 4919.326)"><tspan x="0" y="0">Worried</tspan></text><text class="e" transform="translate(980 4948.326)"><tspan x="0" y="0">Temperamental</tspan></text><text class="e" transform="translate(980 4977.326)"><tspan x="0" y="0">Self-conscious</tspan></text><text class="e" transform="translate(980 5006.326)"><tspan x="0" y="0">Emotional</tspan></text></g></g></svg>